<?xml version="1.0" standalone="no"?>
<!DOCTYPE svg PUBLIC "-//W3C//DTD SVG 20010904//EN"
 "http://www.w3.org/TR/2001/REC-SVG-20010904/DTD/svg10.dtd">
<svg version="1.0" xmlns="http://www.w3.org/2000/svg"
 width="1298.000000pt" height="1298.000000pt" viewBox="0 0 1298.000000 1298.000000"
 preserveAspectRatio="xMidYMid meet">
<metadata>
Created by potrace 1.14, written by Peter Selinger 2001-2017
</metadata>
<g transform="translate(0.000000,1298.000000) scale(0.100000,-0.100000)"
fill="#000000" stroke="none">
<path d="M4161 9188 c-5 -13 -69 -144 -141 -293 -73 -148 -158 -324 -190 -390
-32 -66 -106 -219 -165 -340 -59 -121 -140 -287 -180 -370 -40 -82 -117 -242
-172 -355 -55 -113 -132 -270 -171 -350 -38 -80 -116 -239 -172 -355 -56 -115
-133 -273 -170 -350 -37 -77 -112 -232 -167 -345 -55 -113 -132 -270 -171
-350 -38 -80 -114 -235 -167 -345 -54 -110 -132 -272 -175 -360 -43 -88 -123
-253 -178 -366 l-101 -207 -112 -1 c-61 0 -113 -2 -115 -4 -2 -1 -5 -16 -8
-32 -3 -17 -14 -75 -25 -130 -11 -55 -22 -111 -25 -125 -3 -14 -10 -50 -16
-80 -6 -30 -13 -68 -16 -85 -3 -16 -9 -49 -15 -73 -5 -23 -12 -58 -15 -76 l-5
-34 690 0 c380 0 693 3 695 7 3 4 7 18 9 32 5 25 20 100 22 109 1 3 5 28 10
55 5 28 10 52 10 55 1 3 5 25 10 50 5 25 9 47 10 50 1 3 5 23 10 45 4 22 9 49
12 60 2 11 10 56 18 100 8 44 15 80 15 80 0 0 -110 -1 -245 -2 -135 -1 -245 2
-245 7 0 4 61 133 136 287 75 153 165 339 201 413 36 74 70 138 75 141 13 9
1638 9 1639 0 4 -17 9 -78 25 -276 3 -38 7 -84 9 -101 3 -17 7 -69 10 -115 3
-46 7 -97 10 -114 2 -16 7 -73 11 -125 3 -52 7 -99 8 -105 1 -6 -87 -11 -242
-12 -134 -1 -246 -4 -249 -7 -4 -4 -47 -209 -69 -331 -3 -16 -9 -48 -14 -70
-5 -22 -11 -53 -14 -70 -3 -16 -8 -40 -10 -52 -3 -11 -8 -42 -11 -67 l-7 -45
900 0 900 1 16 71 c18 85 46 222 52 257 3 14 9 50 15 80 6 30 13 69 15 85 3
17 11 56 18 88 7 31 11 57 7 57 -3 1 -54 1 -113 2 -74 0 -108 4 -108 12 0 17
-19 233 -25 293 -3 29 -8 76 -10 105 -5 60 -13 157 -20 241 -3 31 -7 83 -10
115 -2 31 -7 82 -10 112 -3 30 -7 87 -10 125 -3 39 -7 86 -10 105 -2 19 -7 71
-11 115 -11 139 -23 276 -29 345 -2 25 -7 79 -10 120 -6 72 -10 113 -20 218
-2 26 -7 81 -10 122 -3 41 -8 91 -10 110 -3 19 -7 71 -10 115 -3 44 -7 98 -10
120 -2 22 -7 74 -10 115 -3 41 -8 91 -10 110 -3 19 -7 70 -10 113 -2 43 -7 97
-9 120 -6 50 -15 150 -21 227 -2 30 -6 80 -9 111 -14 165 -17 197 -21 236 -3
23 -7 77 -10 120 -3 43 -7 94 -10 113 -2 19 -7 71 -10 115 -4 44 -8 91 -10
105 -2 14 -6 66 -10 115 -5 85 -8 111 -20 230 -2 28 -7 82 -10 120 -3 39 -7
88 -10 110 -2 22 -7 70 -10 108 -3 37 -8 97 -11 135 -4 37 -8 78 -8 92 l-2 25
-567 3 -567 2 -9 -22z m155 -1080 c1 -30 7 -106 19 -223 2 -22 7 -76 10 -120
3 -44 8 -96 10 -115 4 -32 10 -96 20 -225 2 -27 6 -72 9 -100 3 -27 8 -84 11
-125 3 -41 7 -93 10 -115 2 -22 7 -71 10 -110 3 -38 7 -88 10 -110 2 -22 7
-79 10 -125 3 -47 8 -101 10 -120 1 -19 6 -71 10 -115 3 -44 8 -96 10 -115 2
-19 7 -73 10 -120 3 -47 8 -96 10 -110 2 -14 7 -63 10 -110 3 -47 8 -97 10
-112 2 -16 0 -29 -3 -29 -25 -5 -1256 -3 -1263 2 -5 3 18 61 52 130 34 68 91
185 126 259 134 278 203 420 293 605 51 105 123 253 160 330 37 77 103 214
148 305 44 91 121 250 171 353 50 104 91 190 91 193 0 5 31 54 34 54 1 0 2
-15 2 -32z"/>
<path d="M7092 9003 c-23 -115 -44 -224 -47 -243 -3 -19 -10 -54 -16 -78 -5
-23 -11 -57 -14 -75 l-5 -32 178 1 179 1 -14 -71 c-7 -39 -15 -80 -18 -91 -7
-36 -46 -229 -51 -255 -4 -25 -30 -156 -38 -195 -7 -34 -64 -318 -70 -345 -6
-33 -155 -779 -161 -805 -10 -49 -47 -232 -51 -255 -4 -25 -30 -156 -38 -195
-3 -11 -18 -87 -35 -170 -16 -82 -32 -161 -35 -175 -22 -110 -48 -239 -52
-260 -5 -27 -99 -499 -108 -540 -33 -164 -49 -240 -53 -265 -2 -16 -11 -61
-19 -100 -8 -38 -17 -83 -20 -100 -3 -16 -20 -100 -38 -185 l-32 -155 -159 -2
c-88 -1 -169 -2 -180 -2 -22 -1 -19 9 -71 -256 -7 -38 -15 -81 -18 -95 -3 -14
-7 -34 -9 -45 -3 -11 -12 -60 -22 -110 -9 -49 -19 -100 -21 -112 l-6 -21 890
0 889 0 13 71 c8 40 15 77 16 82 41 209 55 276 59 305 3 19 8 42 10 50 2 8 6
26 9 40 3 14 8 40 12 58 l7 32 -84 1 c-46 1 -133 1 -192 1 l-108 0 6 41 c10
59 8 47 60 302 26 127 49 241 52 255 3 19 89 447 109 545 2 11 6 31 9 44 2 14
18 93 35 176 17 83 32 162 35 176 3 13 7 35 10 49 3 14 7 36 10 49 32 170 69
338 75 346 12 15 130 9 145 -7 7 -7 85 -148 175 -313 90 -165 171 -313 180
-330 9 -16 47 -86 85 -155 37 -69 80 -147 95 -175 156 -284 330 -603 358 -655
19 -36 50 -91 68 -123 19 -32 34 -60 34 -62 0 -2 18 -35 40 -74 22 -39 40 -75
40 -80 0 -5 -67 -9 -157 -9 -87 -1 -168 -1 -179 -1 -16 -1 -23 -9 -28 -33 -3
-18 -8 -44 -11 -58 -3 -14 -8 -38 -11 -54 -2 -16 -23 -122 -45 -235 -23 -113
-43 -218 -46 -233 l-4 -26 858 0 859 -1 62 316 c34 174 60 318 58 321 -3 2
-37 4 -76 5 l-72 2 -27 50 c-69 128 -114 211 -121 220 -4 6 -31 55 -60 110
-29 55 -70 129 -90 165 -20 36 -55 99 -77 140 -22 41 -143 262 -268 490 -126
228 -241 440 -257 470 -16 30 -33 62 -39 70 -5 8 -29 51 -53 95 -23 44 -60
112 -81 150 -21 39 -49 90 -63 115 -14 25 -38 70 -55 100 -17 30 -47 85 -68
123 l-38 67 48 48 c26 26 189 184 361 352 172 168 350 341 395 385 202 197
689 671 780 759 55 54 136 132 180 175 l80 78 203 -1 c112 0 208 1 213 4 7 5
29 107 72 340 3 14 8 36 11 50 3 14 8 36 10 50 2 14 7 36 10 50 3 14 8 36 10
50 3 14 8 40 12 58 l7 32 -791 0 c-435 0 -793 -4 -796 -8 -3 -5 -7 -21 -10
-35 -3 -15 -10 -53 -16 -85 -5 -31 -12 -66 -14 -77 -13 -65 -59 -294 -63 -315
-2 -14 -8 -43 -13 -65 -5 -22 -7 -41 -4 -44 2 -2 83 -4 179 -4 159 0 174 -1
163 -16 -7 -9 -16 -18 -20 -21 -3 -3 -163 -159 -355 -346 -191 -188 -391 -383
-443 -434 -52 -51 -255 -249 -450 -440 -195 -191 -434 -424 -530 -518 l-175
-172 -73 0 c-70 0 -72 1 -68 23 3 12 11 49 17 82 7 33 13 62 14 65 1 3 5 28
10 55 5 28 10 52 10 55 1 3 5 23 10 45 5 22 10 42 10 45 1 3 5 28 10 55 5 28
10 52 10 55 11 48 26 121 30 140 3 14 12 61 21 105 8 44 17 91 20 105 2 14 10
50 16 80 6 30 12 60 14 65 1 6 6 35 13 65 6 30 12 66 15 80 2 14 12 61 21 105
9 44 19 91 21 105 3 14 22 113 44 220 42 208 43 213 60 305 6 33 13 67 16 76
4 13 30 16 194 16 105 0 192 2 194 4 2 2 7 21 10 41 3 21 10 57 15 80 6 24 12
57 15 73 9 48 75 388 81 413 l5 22 -888 0 -889 0 -41 -207z"/>
</g>
</svg>
